# xmcd
#
# Track frame offsets: 
#        150
#        21973
#        42731
#        65376
#        81380
#        105607
#        130818
#        155590
#        181917
#        204739
#        233832
#        267244
#        318134
#
# Disc length: 4754 seconds
#
# Revision: 0
# Processed by: cddbd v1.5.2PL0 Copyright (c) Steve Scherf et al.
# Submitted via: ExactAudioCopyFreeDBPlugin 1.0
#
DISCID=b412900d
DTITLE=Pepe Ahlqvist and H.A.R.P. - Step On The Gas! - Live At Möysä
DYEAR=2019
DGENRE=Blues
TTITLE0=Bubble Struggle
TTITLE1=Ain't Doin' Too Bad
TTITLE2=A Change In Me
TTITLE3=Rhythm Guitar
TTITLE4=Breakin' Up Somebody's Home
TTITLE5=Better Treat Her Well
TTITLE6=Big Chief
TTITLE7=One Day Less, One Day More
TTITLE8=Back To The River
TTITLE9=Injun Woman
TTITLE10=Pack It Up
TTITLE11=I'm Tore Down
TTITLE12=Honey Hush! (Talkin' Woman)
EXTD=
EXTT0=
EXTT1=
EXTT2=
EXTT3=
EXTT4=
EXTT5=
EXTT6=
EXTT7=
EXTT8=
EXTT9=
EXTT10=
EXTT11=
EXTT12=
PLAYORDER=
